<svg width="34" height="34" viewBox="0 0 34 34" fill="none" xmlns="http://www.w3.org/2000/svg">
<path d="M24.0833 29.75L24.0692 29.7486C20.9383 29.7344 18.4025 27.1986 18.4025 24.0677C18.4025 20.9369 20.9383 18.4011 24.0692 18.4011C27.1858 18.4011 29.7358 20.9369 29.7217 24.0677V24.0536C29.7217 27.1702 27.1717 29.7061 24.055 29.7202" stroke="#323232" stroke-width="1.8" stroke-linecap="round" stroke-linejoin="round"/>
<path d="M25.6133 24.0125H25.5991C25.5566 24.0125 25.5283 24.0266 25.5283 24.0691C25.5283 24.0975 25.5424 24.1258 25.5849 24.1258C25.6133 24.1116 25.6416 24.0975 25.6416 24.055C25.6402 24.0408 25.6402 24.0408 25.6274 24.0408V24.0266C25.6274 23.9841 25.5991 23.9558 25.5566 23.9558C25.5424 23.9558 25.5424 23.9558 25.5424 23.9558" stroke="#323232" stroke-width="1.8" stroke-linecap="round" stroke-linejoin="round"/>
<path d="M22.5391 24.0125C22.4966 23.9983 22.4682 24.0266 22.4682 24.0691C22.4541 24.0691 22.4541 24.0691 22.4541 24.0691H22.4399C22.4257 24.0975 22.4541 24.1258 22.4966 24.1258C22.5249 24.1258 22.5532 24.0975 22.5532 24.055C22.5532 24.0125 22.5249 23.9842 22.4824 23.9842C22.4682 23.9827 22.4682 23.9842 22.4682 23.9842" stroke="#323232" stroke-width="1.8" stroke-linecap="round" stroke-linejoin="round"/>
<path d="M24.0691 12.75H24.0549L17.3683 5.07165C16.4899 4.05165 14.9599 3.95249 13.9541 4.81665C13.8549 4.88749 13.7699 4.97249 13.6991 5.05749C11.4466 7.64999 8.92494 10.5683 7.02661 12.7217" stroke="#323232" stroke-width="1.8" stroke-linecap="round" stroke-linejoin="round"/>
<path d="M26.0666 18.7708L26.8175 15.9942V15.98C27.1858 14.6058 26.3783 13.1892 25.0041 12.8067C24.7775 12.7358 24.5508 12.7075 24.3241 12.7075H6.79996H6.78579C5.35496 12.7075 4.20746 13.855 4.20746 15.2717C4.20746 15.4983 4.23579 15.725 4.29246 15.9375L6.74329 24.9475L6.72913 24.9333C7.02663 26.0525 8.04663 26.8175 9.20829 26.8175H19.0966" stroke="#323232" stroke-width="1.8" stroke-linecap="round" stroke-linejoin="round"/>
</svg>
