<svg width="36" height="54" viewBox="0 0 36 54" fill="none" xmlns="http://www.w3.org/2000/svg">
<path d="M30.1934 38.2894C30.1808 38.2219 30.1597 38.1555 30.1333 38.0922C30.1069 38.0279 30.0742 37.9667 30.0363 37.9097C29.9983 37.8517 29.954 37.7979 29.9055 37.7494C29.6608 37.5047 29.2969 37.3919 28.9542 37.4615C28.8867 37.4752 28.8202 37.4952 28.7569 37.5216C28.6926 37.548 28.6314 37.5807 28.5745 37.6186C28.5165 37.6566 28.4627 37.7009 28.4142 37.7494C28.3656 37.7979 28.3214 37.8517 28.2834 37.9097C28.2454 37.9667 28.2127 38.0279 28.1864 38.0922C28.16 38.1555 28.1399 38.2219 28.1262 38.2894C28.1125 38.3569 28.1051 38.4265 28.1051 38.4951C28.1051 38.5636 28.1125 38.6333 28.1262 38.7018C28.1399 38.7683 28.16 38.8347 28.1864 38.899C28.2127 38.9623 28.2454 39.0235 28.2834 39.0804C28.3214 39.1384 28.3656 39.1922 28.4142 39.2408C28.4627 39.2893 28.5165 39.3336 28.5745 39.3726C28.6314 39.4106 28.6926 39.4433 28.7569 39.4696C28.8202 39.496 28.8867 39.516 28.9542 39.5297C29.0217 39.5435 29.0913 39.5498 29.1598 39.5498C29.4372 39.5498 29.7093 39.438 29.9055 39.2408C29.954 39.1922 29.9983 39.1384 30.0363 39.0804C30.0742 39.0235 30.1069 38.9623 30.1333 38.899C30.1597 38.8347 30.1808 38.7683 30.1934 38.7018C30.2071 38.6333 30.2145 38.5636 30.2145 38.4951C30.2145 38.4265 30.2071 38.3569 30.1934 38.2894Z" fill="#323232"/>
<path d="M35.5692 23.2883C35.3691 23.0639 35.0827 22.9355 34.782 22.9355H33.5507V9.66509C33.5507 9.08258 33.0785 8.6104 32.496 8.6104H28.8203V4.56112C28.8203 3.97861 28.3481 3.50643 27.7656 3.50643H23.0353C22.4528 3.50643 21.9807 3.97861 21.9807 4.56112V11.4656H19.3597V5.69797C19.3597 5.11547 18.8876 4.64328 18.3051 4.64328H14.6293V1.05469C14.6293 0.472185 14.1572 0 13.5747 0H8.84426C8.26175 0 7.78957 0.472185 7.78957 1.05469V10.233H4.11386C3.53135 10.233 3.05917 10.7052 3.05917 11.2877V22.9355H1.82803C1.52734 22.9355 1.24088 23.0639 1.04081 23.2883C0.84073 23.5128 0.745914 23.812 0.780296 24.1107L4.11133 53.0659C4.17261 53.5982 4.62328 54 5.15916 54H31.4512C31.987 54 32.4377 53.5982 32.4989 53.0659L35.8299 24.1107C35.8641 23.812 35.7693 23.5128 35.5692 23.2883ZM28.8204 10.7198H31.4414V22.9355H28.8204V10.7198ZM24.09 5.61581H26.7111V23.1914C26.5265 23.3505 26.3968 23.5732 26.3572 23.8295L25.5878 28.8153H24.09V5.61581ZM19.3597 13.5749H21.9808V28.8152H19.3597V13.5749ZM14.6293 6.75266H17.2504V28.8152H14.6293V6.75266ZM9.89895 2.10938H12.52V28.8152H11.0222L10.2528 23.8294C10.2132 23.5732 10.0835 23.3503 9.89895 23.1913V2.10938ZM5.16866 12.3424H7.78967V22.9355H5.16866V12.3424ZM9.93555 51.8907L10.3785 48.0392H26.2315L26.6745 51.8907H9.93555ZM30.5107 51.8907H28.7978L28.2197 46.8641C28.1584 46.3318 27.7077 45.9299 27.1718 45.9299H9.43815C8.90227 45.9299 8.4516 46.3318 8.39032 46.8641L7.81224 51.8907H6.09932L4.67981 39.5502H24.9345C25.517 39.5502 25.9892 39.078 25.9892 38.4955C25.9892 37.913 25.517 37.4408 24.9345 37.4408H4.43723L3.43664 28.742H5.13565L5.90494 33.7281C5.98425 34.2425 6.42691 34.6219 6.94729 34.6219H29.6627C30.1831 34.6219 30.6257 34.2424 30.7051 33.7281L31.4744 28.742H33.1734L30.5107 51.8907ZM33.416 26.6327H30.57C30.0496 26.6327 29.607 27.0122 29.5276 27.5265L28.7583 32.5126H7.85169L7.0824 27.5265C7.00298 27.0121 6.56043 26.6327 6.04004 26.6327H3.19396L3.01139 25.045H8.30563L9.07513 30.0308C9.11995 30.3212 9.28069 30.5688 9.50587 30.7292C9.50798 30.7307 9.51009 30.7321 9.51219 30.7336C9.51641 30.7366 9.52074 30.7395 9.52496 30.7425C9.52833 30.7448 9.53171 30.747 9.53519 30.7493C9.53803 30.7512 9.54099 30.7531 9.54383 30.755C9.54837 30.758 9.55291 30.7608 9.55744 30.7637C9.55913 30.7647 9.56081 30.7658 9.5625 30.7668C9.56788 30.7702 9.57337 30.7735 9.57885 30.7767C9.57969 30.7773 9.58043 30.7777 9.58128 30.7782C9.69234 30.844 9.81647 30.8899 9.94894 30.9112C9.94947 30.9113 9.9501 30.9114 9.95073 30.9115C9.95717 30.9126 9.9636 30.9135 9.97014 30.9144C9.97215 30.9147 9.97404 30.9149 9.97605 30.9152C9.98174 30.916 9.98744 30.9167 9.99313 30.9173C9.99609 30.9177 9.99893 30.9181 10.0019 30.9184C10.0069 30.9189 10.012 30.9194 10.0172 30.92C10.0208 30.9203 10.0242 30.9206 10.0278 30.9209C10.0325 30.9213 10.0371 30.9217 10.0418 30.9221C10.0459 30.9224 10.0501 30.9226 10.0543 30.9228C10.0585 30.923 10.0627 30.9233 10.067 30.9236C10.0722 30.9238 10.0775 30.924 10.0828 30.9242C10.0858 30.9243 10.089 30.9244 10.0921 30.9245C10.1007 30.9247 10.1094 30.9248 10.118 30.9248H26.4925C26.5012 30.9248 26.5098 30.9247 26.5185 30.9245C26.5215 30.9244 26.5247 30.9243 26.5277 30.9242C26.533 30.924 26.5383 30.9239 26.5436 30.9236C26.5478 30.9233 26.552 30.9231 26.5562 30.9228C26.5604 30.9226 26.5646 30.9223 26.5688 30.9221C26.5734 30.9218 26.5781 30.9213 26.5827 30.9209C26.5863 30.9206 26.5898 30.9203 26.5933 30.92C26.5984 30.9194 26.6036 30.9189 26.6086 30.9184C26.6116 30.9181 26.6144 30.9178 26.6174 30.9173C26.6231 30.9167 26.6288 30.916 26.6345 30.9152C26.6364 30.9149 26.6384 30.9147 26.6404 30.9144C26.6468 30.9134 26.6534 30.9125 26.6598 30.9115C26.6604 30.9114 26.6609 30.9113 26.6616 30.9112C26.7941 30.8899 26.9182 30.8439 27.0293 30.7782C27.0301 30.7778 27.0308 30.7773 27.0317 30.7767C27.0372 30.7735 27.0425 30.7702 27.048 30.7668C27.0497 30.7658 27.0514 30.7647 27.0531 30.7637C27.0576 30.7608 27.0622 30.7579 27.0667 30.755C27.0696 30.7531 27.0725 30.7512 27.0753 30.7493C27.0787 30.747 27.0822 30.7448 27.0856 30.7425C27.0899 30.7395 27.0941 30.7366 27.0983 30.7336C27.1004 30.7321 27.1026 30.7307 27.1047 30.7292C27.3298 30.5688 27.4906 30.3213 27.5354 30.0308L28.3049 25.045H33.5991L33.416 26.6327Z" fill="#323232"/>
</svg>
