<svg width="356" height="356" viewBox="0 0 356 356" fill="none" xmlns="http://www.w3.org/2000/svg">
<path d="M289.73 174.837C289.639 174.392 289.507 173.954 289.333 173.537C289.16 173.12 288.944 172.716 288.694 172.334C288.436 171.958 288.144 171.597 287.825 171.277C287.505 170.957 287.15 170.672 286.768 170.415C286.392 170.165 285.989 169.949 285.572 169.775C285.148 169.601 284.717 169.469 284.272 169.379C283.375 169.198 282.45 169.198 281.553 169.379C281.108 169.469 280.67 169.601 280.253 169.775C279.835 169.949 279.425 170.165 279.05 170.415C278.674 170.672 278.313 170.956 277.993 171.277C277.673 171.597 277.381 171.958 277.131 172.334C276.88 172.716 276.665 173.12 276.491 173.537C276.317 173.954 276.185 174.392 276.095 174.837C276.004 175.289 275.956 175.741 275.956 176.2C275.956 176.652 276.004 177.104 276.095 177.556C276.185 178.001 276.317 178.439 276.491 178.856C276.665 179.273 276.88 179.676 277.131 180.059C277.381 180.434 277.673 180.796 277.993 181.116C278.313 181.436 278.674 181.728 279.05 181.978C279.425 182.228 279.835 182.444 280.253 182.618C280.67 182.791 281.108 182.923 281.553 183.014C282.005 183.104 282.457 183.153 282.909 183.153C283.368 183.153 283.82 183.104 284.272 183.014C284.717 182.923 285.148 182.791 285.572 182.618C285.989 182.444 286.392 182.228 286.768 181.978C287.15 181.728 287.505 181.436 287.825 181.116C289.125 179.815 289.862 178.028 289.862 176.2C289.862 175.741 289.82 175.289 289.73 174.837Z" fill="black"/>
<path d="M81.0734 302.079C80.7536 301.759 80.399 301.474 80.0165 301.217C79.6411 300.967 79.2378 300.751 78.8137 300.577C78.3965 300.403 77.9584 300.271 77.5134 300.181C76.6165 300 75.698 300 74.8017 300.181C74.3567 300.271 73.9187 300.403 73.5015 300.577C73.0773 300.751 72.674 300.967 72.2986 301.217C71.9162 301.474 71.5615 301.759 71.2417 302.079C69.9484 303.372 69.2044 305.166 69.2044 307.002C69.2044 307.454 69.2531 307.906 69.3435 308.358C69.4339 308.803 69.566 309.241 69.7398 309.658C69.9137 310.075 70.1292 310.479 70.3795 310.861C70.6298 311.236 70.9219 311.597 71.2417 311.918C71.5615 312.238 71.9162 312.53 72.2986 312.78C72.674 313.03 73.0773 313.246 73.5015 313.42C73.9187 313.594 74.3567 313.726 74.8017 313.816C75.2467 313.906 75.7056 313.955 76.1576 313.955C76.6095 313.955 77.0684 313.906 77.5134 313.816C77.9584 313.726 78.3965 313.594 78.8137 313.42C79.2378 313.246 79.6411 313.03 80.0165 312.78C80.399 312.53 80.7536 312.238 81.0734 311.918C81.3933 311.598 81.6853 311.236 81.9426 310.861C82.1929 310.479 82.4015 310.075 82.5753 309.658C82.7491 309.241 82.8882 308.803 82.9716 308.358C83.062 307.906 83.1107 307.454 83.1107 307.002C83.1107 305.166 82.3667 303.372 81.0734 302.079Z" fill="black"/>
<path d="M356 217.566C356 207.682 349.584 199.269 340.698 196.273C339.565 144.712 297.27 103.116 245.443 103.116H184.953V89.1245L244.13 54.9582C246.281 53.7164 247.606 51.4212 247.606 48.9368C247.606 46.4525 246.281 44.1572 244.13 42.9154L181.477 6.74247C179.325 5.50064 176.675 5.50064 174.523 6.74247C172.372 7.9843 171.047 10.2795 171.047 12.7639V103.116H110.557C58.7289 103.116 16.4344 144.711 15.3017 196.272C6.41634 199.269 0 207.682 0 217.566C0 224.722 3.46335 231.296 8.9146 235.456C4.58767 240.909 2.12209 247.745 2.12209 254.948C2.12209 265.457 7.31955 274.775 15.2781 280.467V299.008C15.2781 327.229 38.238 350.189 66.4594 350.189H289.54C317.761 350.189 340.721 327.229 340.721 299.008V280.467C348.68 274.775 353.877 265.457 353.877 254.948C353.877 247.745 351.412 240.909 347.085 235.456C352.537 231.296 356 224.721 356 217.566ZM184.953 24.8074L226.747 48.9375L184.953 73.0669V24.8074ZM30.6167 183.15H254.814C258.654 183.15 261.767 180.037 261.767 176.196C261.767 172.356 258.654 169.243 254.814 169.243H34.5835C46.3308 138.732 75.9566 117.022 110.557 117.022H245.443C289.208 117.022 325.014 151.755 326.75 195.102H29.2504C29.4131 191.035 29.8762 187.043 30.6167 183.15ZM217.389 223.861C213.549 223.861 210.436 226.974 210.436 230.814C210.436 240.041 203.123 247.591 193.989 247.973C193.914 247.975 193.84 247.978 193.766 247.981C193.598 247.986 193.43 247.989 193.261 247.989C183.791 247.989 176.087 240.284 176.087 230.814V209.008H306.949V230.814H306.948C306.948 240.284 299.244 247.989 289.774 247.989C280.303 247.989 272.599 240.284 272.599 230.814C272.599 226.974 269.486 223.861 265.646 223.861C261.805 223.861 258.692 226.974 258.692 230.814V255.221C258.692 264.692 250.988 272.396 241.518 272.396C232.047 272.396 224.343 264.692 224.343 255.221V230.814C224.343 226.974 221.23 223.861 217.389 223.861ZM13.9062 217.566C13.9062 212.847 17.7451 209.008 22.4642 209.008H162.18V230.814C162.18 238.416 164.924 245.39 169.473 250.797C163.695 248.839 159.722 244.842 155.06 240.153C147.959 233.009 139.122 224.119 122.331 224.119C105.538 224.119 96.6999 233.01 89.5987 240.154C82.9716 246.821 77.738 252.086 66.7305 252.086C56.903 252.086 49.8171 245.871 42.3153 239.29C36.8279 234.477 31.1549 229.499 24.2073 226.969C23.6107 226.751 22.9933 226.619 22.3724 226.57C21.8224 226.276 21.2237 226.052 20.5854 225.911C16.7153 225.059 13.9062 221.549 13.9062 217.566ZM16.0283 254.948C16.0283 249.655 18.4209 244.718 22.4336 241.436C25.9365 243.42 29.4604 246.512 33.1442 249.743C41.3968 256.983 51.6673 265.992 66.7298 265.992C83.5216 265.992 92.3597 257.101 99.461 249.957C106.088 243.29 111.322 238.024 122.33 238.024C133.337 238.024 138.57 243.29 145.197 249.956C152.299 257.1 161.137 265.992 177.933 265.992H178.067C184.772 265.992 190.703 264.606 196.141 261.762C201.404 261.276 206.292 259.472 210.469 256.685C210.739 262.474 212.599 267.854 215.623 272.396H33.4765C23.8562 272.396 16.0283 264.569 16.0283 254.948ZM326.815 299.009C326.815 299.356 326.81 299.701 326.8 300.045H104.254C100.414 300.045 97.3013 303.158 97.3013 306.999C97.3013 310.839 100.414 313.952 104.254 313.952H323.688C317.918 327.088 304.783 336.284 289.54 336.284H66.4594C45.9059 336.284 29.1844 319.562 29.1844 299.009V286.303H326.815V299.009ZM322.523 272.396H267.41C269.467 269.306 270.986 265.827 271.831 262.096C276.486 264.417 282.136 265.992 289.269 265.992C304.333 265.992 314.603 256.982 322.855 249.743C326.539 246.512 330.063 243.42 333.566 241.436C337.578 244.718 339.971 249.655 339.971 254.948C339.972 264.569 332.144 272.396 322.523 272.396ZM335.415 225.911C334.776 226.052 334.176 226.277 333.626 226.571C333.006 226.62 332.389 226.752 331.793 226.969C327.753 228.441 324.144 230.74 320.751 233.352C320.819 232.515 320.854 231.668 320.854 230.814V209.008H333.535C338.254 209.008 342.093 212.847 342.093 217.566C342.094 221.549 339.285 225.059 335.415 225.911Z" fill="black"/>
</svg>
