<svg width="51" height="55" viewBox="0 0 51 55" fill="none" xmlns="http://www.w3.org/2000/svg">
<path d="M38.5298 30.9654C38.4813 30.9169 38.4275 30.8726 38.3694 30.8347C38.3124 30.7967 38.2513 30.764 38.188 30.7376C38.1237 30.7113 38.0572 30.6913 37.9907 30.6775C37.8547 30.6501 37.7144 30.6501 37.5783 30.6775C37.511 30.6912 37.4445 30.7113 37.3812 30.7376C37.3169 30.764 37.2557 30.7968 37.1988 30.8347C37.1408 30.8726 37.087 30.9169 37.0385 30.9654C36.9899 31.014 36.9455 31.0678 36.9077 31.1258C36.8697 31.1827 36.837 31.2439 36.8106 31.3082C36.7843 31.3714 36.7642 31.4378 36.7505 31.5054C36.7368 31.5728 36.7294 31.6426 36.7294 31.7111C36.7294 31.7796 36.7368 31.8493 36.7505 31.9178C36.7642 31.9843 36.7843 32.0507 36.8106 32.1151C36.837 32.1783 36.8697 32.2395 36.9077 32.2965C36.9455 32.3545 36.9899 32.4083 37.0385 32.4568C37.087 32.5053 37.1408 32.5496 37.1988 32.5886C37.2557 32.6266 37.3169 32.6593 37.3812 32.6856C37.4444 32.712 37.5108 32.7321 37.5783 32.7458C37.6458 32.7594 37.7156 32.7658 37.784 32.7658C37.8527 32.7658 37.9223 32.7594 37.9908 32.7458C38.0573 32.7321 38.1238 32.712 38.1881 32.6856C38.2515 32.6593 38.3125 32.6266 38.3695 32.5886C38.4276 32.5496 38.4814 32.5053 38.5299 32.4568C38.5784 32.4082 38.6227 32.3545 38.6617 32.2965C38.6997 32.2395 38.7324 32.1783 38.7588 32.1151C38.7851 32.0507 38.8052 31.9843 38.8189 31.9178C38.8325 31.8493 38.8388 31.7796 38.8388 31.7111C38.8388 31.4336 38.726 31.1616 38.5298 30.9654Z" fill="#323232"/>
<path d="M49.0681 16.1073H41.6488C42.0513 14.9708 42.2602 13.7656 42.2602 12.5515C42.2602 11.6595 42.1498 10.7928 41.9418 9.96439L43.5244 9.21483C43.9155 9.67499 44.4221 10.0266 45.0061 10.2352C45.8837 10.5488 46.8305 10.5014 47.672 10.1027C48.5139 9.70399 49.1502 9.00125 49.4634 8.12386C49.7768 7.24657 49.7296 6.29977 49.3309 5.45803C49.0342 4.83144 48.5688 4.32002 47.9944 3.97134C48.0887 3.30615 47.9878 2.62229 47.691 1.9957C46.8677 0.25778 44.7842 -0.486302 43.046 0.336671C41.5923 1.02528 40.8337 2.59581 41.1064 4.10803L39.1424 5.03837C37.2179 3.11419 34.5609 1.9225 31.6307 1.9225C29.0996 1.9225 26.7722 2.81181 24.9447 4.29449C21.2493 2.70424 17.0946 2.77173 13.4384 4.50353C10.9974 5.65979 8.95833 7.47965 7.5422 9.76643C6.35008 11.6917 5.64502 13.8651 5.47786 16.1075H1.7547C1.1722 16.1075 0.700012 16.5798 0.700012 17.1622V22.3075C0.700012 22.8899 1.1722 23.3622 1.7547 23.3622H3.29412L6.88797 53.0733C6.9521 53.603 7.4015 54.0013 7.93507 54.0013H42.8876C43.4212 54.0013 43.8706 53.603 43.9347 53.0733L47.5286 23.3622H49.068C49.6504 23.3622 50.1227 22.8899 50.1227 22.3075V17.162C50.1228 16.5796 49.6505 16.1073 49.0681 16.1073ZM42.8584 5.61222C43.1212 5.48777 43.321 5.26027 43.4104 4.98363C43.4999 4.70688 43.4711 4.40555 43.3309 4.15074C43.3181 4.12733 43.3055 4.1036 43.2936 4.07849C42.9683 3.39179 43.2624 2.56839 43.9491 2.24313C44.6361 1.91786 45.4593 2.21191 45.7847 2.89861C45.9669 3.28358 45.9619 3.7237 45.7704 4.10623C45.6254 4.39606 45.6217 4.73662 45.7604 5.02951C45.8991 5.32239 46.1649 5.53533 46.4811 5.60684C46.8983 5.70124 47.2421 5.97609 47.4245 6.36105C47.5821 6.6937 47.6006 7.0678 47.4768 7.41447C47.353 7.76115 47.1015 8.03885 46.7689 8.19642C46.4365 8.35388 46.0624 8.37287 45.7155 8.24873C45.3688 8.12491 45.0911 7.87347 44.9332 7.5403C44.9213 7.51509 44.9105 7.48957 44.9002 7.46394C44.7915 7.19468 44.5764 6.98226 44.3059 6.87669C44.0353 6.77111 43.7332 6.78166 43.4709 6.90601L41.2217 7.97145C41.0139 7.53798 40.7775 7.12074 40.515 6.72207L42.8584 5.61222ZM31.6309 4.03167C36.3288 4.03167 40.1507 7.85375 40.1507 12.5515C40.1507 13.7807 39.8839 14.9981 39.375 16.1072H23.8867C23.3777 14.9982 23.111 13.7809 23.111 12.5515C23.111 7.85375 26.9331 4.03167 31.6309 4.03167ZM14.3417 6.40967C17.1888 5.06125 20.3926 4.90136 23.325 5.92599C21.8715 7.74427 21.0016 10.0483 21.0016 12.5518C21.0016 13.7657 21.2105 14.9708 21.613 16.1074H7.59483C7.96523 11.9476 10.5299 8.21509 14.3417 6.40967ZM45.1155 25.7453H14.8773C14.2948 25.7453 13.8227 26.2175 13.8227 26.8C13.8227 27.3825 14.2948 27.8546 14.8773 27.8546H44.8603L41.9529 51.8918H8.86984L6.55648 32.7661H33.3964C33.9789 32.7661 34.4511 32.2938 34.4511 31.7114C34.4511 31.129 33.9789 30.6567 33.3964 30.6567H6.30125L5.4189 23.3622H45.4038L45.1155 25.7453ZM48.0134 21.2527H2.80939V18.2169H48.0134V21.2527Z" fill="#323232"/>
<path d="M29.3287 34.0305C25.7364 34.0305 22.6797 36.3671 21.5988 39.6005L19.4892 39.6006C19.0916 38.3177 17.8939 37.3831 16.4819 37.3831C15.6413 37.3831 14.8509 37.7104 14.2563 38.3049C13.6618 38.8994 13.3344 39.6898 13.3345 40.5305C13.3345 41.1232 13.4977 41.6898 13.7986 42.1783C13.4977 42.6666 13.3345 43.2332 13.3345 43.8259C13.3345 44.6666 13.6619 45.457 14.2563 46.0515C14.8508 46.6459 15.6412 46.9733 16.4819 46.9733C17.8939 46.9733 19.0916 46.0387 19.4892 44.7558H21.5988C22.6797 47.9891 25.7365 50.3259 29.3287 50.3259C33.8214 50.3259 37.4764 46.6709 37.4764 42.1783C37.4764 37.6854 33.8214 34.0305 29.3287 34.0305ZM21.1943 42.6462H18.5707C18.2802 42.6462 18.0026 42.766 17.8034 42.9773C17.604 43.1887 17.5008 43.4727 17.5178 43.7626C17.519 43.7835 17.52 43.8046 17.52 43.8258C17.52 44.3982 17.0543 44.8638 16.4819 44.8638C16.2047 44.8638 15.944 44.7559 15.7479 44.5597C15.5518 44.3638 15.4439 44.1031 15.4439 43.8258C15.4439 43.5051 15.5894 43.2071 15.8431 43.0083C16.0983 42.8084 16.2473 42.5024 16.2473 42.1783C16.2473 41.8542 16.0983 41.5481 15.8432 41.348C15.5895 41.1492 15.4439 40.8511 15.4439 40.5304C15.4439 40.2531 15.5519 39.9924 15.7479 39.7965C15.944 39.6004 16.2047 39.4924 16.4819 39.4924C17.0543 39.4924 17.52 39.958 17.52 40.5304C17.52 40.5516 17.519 40.5727 17.5178 40.5937C17.5008 40.8836 17.6041 41.1677 17.8034 41.3789C18.0027 41.5902 18.2802 41.71 18.5707 41.71L21.1943 41.7099C21.1854 41.8648 21.181 42.0209 21.181 42.178C21.181 42.3352 21.1854 42.4913 21.1943 42.6462ZM29.3287 48.2164C25.9991 48.2164 23.2904 45.5076 23.2904 42.178C23.2904 38.8486 25.9991 36.1399 29.3287 36.1399C32.6581 36.1399 35.367 38.8486 35.367 42.178C35.367 45.5075 32.6582 48.2164 29.3287 48.2164Z" fill="#323232"/>
</svg>
