<svg width="84" height="84" viewBox="0 0 84 84" fill="none" xmlns="http://www.w3.org/2000/svg">
<path d="M10.5 10.794V26.411V26.726V26.411C10.5 30.87 12.3375 34.818 15.1865 37.373C16.5795 38.6225 17.5 40.3095 17.5 42.182V68.25C17.5 71.148 19.852 73.5 22.75 73.5C25.648 73.5 28 71.148 28 68.25V42.182C28 40.3095 28.9205 38.6225 30.3135 37.373C33.1625 34.818 35 30.87 35 26.411V10.794V26.411" stroke="#323232" stroke-width="6" stroke-linecap="round" stroke-linejoin="round"/>
<path d="M22.75 28V10.5" stroke="#323232" stroke-width="6" stroke-linecap="round" stroke-linejoin="round"/>
<path d="M70 14.182C70 12.25 68.432 10.682 66.5 10.682H63C57.2005 10.682 52.5 15.3825 52.5 21.182V42.182C52.5 46.746 55.4295 50.5925 59.5 52.038V68.25C59.5 71.148 61.852 73.5 64.75 73.5C67.648 73.5 70 71.148 70 68.25V52.682V14.182Z" stroke="#323232" stroke-width="6" stroke-linecap="round" stroke-linejoin="round"/>
</svg>
